# xmcd CD database file generated by Grip 3.2.0
# 
# Track frame offsets:
#       150
#       15845
#       30742
#       49808
#       61381
#       71483
#       84981
#       102408
#       116071
#       129430
#       141190
#       154245
#       168939
#       186239
#       204454
#       223850
#       241704
#       252418
#       261126
# 
# Disc length: 3707 seconds
# 
# Revision: 1
# Processed by: cddbd v1.5.1PL2 Copyright (c) Steve Scherf et al.
# Submitted via: Grip 3.2.0
# 
DISCID=0b0e7913
DTITLE=Various Artist - 1. velký trampský zpěvník  Nez - Pís
DYEAR=2005
DGENRE=Country
TTITLE0=Nezapomeň hochu
TTITLE1=Nezapomínejte kamarádi
TTITLE2=Nezralé maliny
TTITLE3=Niagára
TTITLE4=No, to se ví
TTITLE5=Noc je dlouhá
TTITLE6=Odešel kamarád
TTITLE7=Odliv hučí
TTITLE8=Oklahoma Hill
TTITLE9=Okoř
TTITLE10=Ólé, ó Cangaciero
TTITLE11=Osada
TTITLE12=Osamělý město
TTITLE13=Ostrůvek
TTITLE14=Pádlo se do vody noří (Kanoe)
TTITLE15=Pampelišky
TTITLE16=Patra z ranče "Y"
TTITLE17=Pět dolarů
TTITLE18=Píseň severu
EXTD=Vložila Agina
EXTT0=
EXTT1=
EXTT2=
EXTT3=
EXTT4=
EXTT5=
EXTT6=
EXTT7=
EXTT8=
EXTT9=
EXTT10=
EXTT11=
EXTT12=
EXTT13=
EXTT14=
EXTT15=
EXTT16=
EXTT17=
EXTT18=
PLAYORDER=
